# xmcd
#
# Track frame offsets:
#	150
#	24562
#	44442
#	65730
#	86647
#	111307
#	130187
#	151867
#	172900
#	190325
#	216000
#	235252
#
# Disc length: 3477 seconds
#
# Revision: 4
# Processed by: cddbd v1.5.2PL0 Copyright (c) Steve Scherf et al.
# Submitted via: EZCDAudioConverter 8.0.2.1
#
DISCID=a20d930c
DTITLE=Ngọc Lan - 9. Tình Xưa
DYEAR=1999
DGENRE=Vietnamese
TTITLE0=Như đã dấu yêu
TTITLE1=Và con tim đã vui trở lại
TTITLE2=Anh hỡi em về đây
TTITLE3=Trái tim còn trinh
TTITLE4=Khóc một giòng sông
TTITLE5=Nắng hạ
TTITLE6=Con đường tình
TTITLE7=Màu mắt nhung
TTITLE8=Tình xưa xa rồi
TTITLE9=Em vẫn biết
TTITLE10=Hạnh phúc dịu dàng
TTITLE11=Vĩnh biệt tình anh
EXTD=
EXTT0=
EXTT1=
EXTT2=
EXTT3=
EXTT4=
EXTT5=
EXTT6=
EXTT7=
EXTT8=
EXTT9=
EXTT10=
EXTT11=
PLAYORDER=
